<svg version="1.1" id="Layer_1" xmlns="http://www.w3.org/2000/svg" xmlns:xlink="http://www.w3.org/1999/xlink" x="0px" y="0px"
	 width="100%" viewBox="0 0 1200 1208" enable-background="new 0 0 1200 1208" xml:space="preserve">
<path fill="none" opacity="1.000000" stroke="none" 
	d="
M789.000000,1209.000000 
	C526.000000,1209.000000 263.500000,1209.000000 1.000000,1209.000000 
	C1.000000,806.333313 1.000000,403.666656 1.000000,1.000000 
	C401.000000,1.000000 801.000000,1.000000 1201.000000,1.000000 
	C1201.000000,403.666656 1201.000000,806.333313 1201.000000,1209.000000 
	C1063.833374,1209.000000 926.666687,1209.000000 789.000000,1209.000000 
M473.100311,710.007996 
	C457.100311,710.064087 441.100311,710.120178 424.160004,710.032654 
	C391.786957,709.987793 359.413910,709.942993 326.596039,709.153870 
	C310.407288,709.157532 294.218536,709.161194 277.100311,709.007935 
	C261.085022,709.060730 245.069748,709.113525 228.120056,709.022217 
	C217.202316,709.346375 206.240738,709.174255 195.379105,710.133728 
	C184.424667,711.101318 174.998016,716.663086 167.987976,724.688232 
	C156.963516,737.309143 152.501724,752.315125 155.962418,769.215332 
	C158.017685,779.252136 162.379776,788.815613 170.355804,794.413391 
	C184.998077,804.689758 200.967941,813.083679 216.446442,822.156494 
	C228.319565,829.116089 240.315125,835.866577 252.207443,842.793823 
	C267.582275,851.749634 282.866455,860.861450 298.268951,869.769043 
	C310.456512,876.817322 322.815826,883.568665 335.004364,890.615295 
	C350.262634,899.436646 365.380219,908.501526 380.639618,917.321045 
	C396.889862,926.713074 413.272705,935.875610 429.528412,945.258301 
	C448.024292,955.934143 466.420441,966.782654 484.903229,977.481262 
	C500.447906,986.479187 516.083191,995.320557 531.626709,1004.320435 
	C550.108154,1015.021423 568.538147,1025.811401 586.983337,1036.575073 
	C599.142578,1043.670654 611.253723,1050.849487 623.450867,1057.879272 
	C637.323792,1065.874756 651.307495,1073.678345 665.169739,1081.692139 
	C676.513489,1088.250000 687.713196,1095.056763 699.044983,1101.635620 
	C707.884827,1106.767700 716.955383,1111.639526 727.452332,1111.968628 
	C745.191467,1112.524780 760.071106,1106.227173 770.704407,1091.729858 
	C779.088867,1080.298584 782.437622,1067.721069 779.325317,1053.266968 
	C776.991089,1042.426270 770.853027,1033.698486 765.735107,1024.462524 
	C754.927368,1004.958557 743.183411,985.975769 731.997009,966.678589 
	C720.240479,946.398071 708.776489,925.947998 697.019836,905.667480 
	C684.452942,883.989441 671.617798,862.466919 659.042053,840.793945 
	C648.573181,822.751770 638.384399,804.547180 627.935120,786.493530 
	C617.650757,768.724548 607.296387,750.994446 596.782410,733.360718 
	C588.298035,719.130920 575.374634,711.827209 559.020691,711.098145 
	C547.048157,710.564392 535.035583,710.932129 522.596008,710.153809 
	C506.407257,710.157471 490.218536,710.161194 473.100311,710.007996 
M1045.994751,576.094543 
	C1046.002808,549.161743 1046.038086,522.228943 1046.011475,495.296173 
	C1045.982788,466.204987 1045.895996,437.113831 1045.982056,407.092987 
	C1045.933228,379.076447 1045.884399,351.059906 1045.969604,322.109009 
	C1045.650391,312.349976 1045.742798,302.555725 1044.911255,292.840546 
	C1043.778442,279.603699 1036.246704,269.574463 1026.023071,262.098663 
	C1015.172241,254.164307 1002.783081,251.451019 989.036133,253.810043 
	C974.438904,256.315002 963.726685,264.119537 956.066589,275.981049 
	C948.093750,288.326996 941.222900,301.385834 933.902344,314.151398 
	C922.228638,334.507935 910.664612,354.927887 898.900635,375.232056 
	C886.330322,396.927826 873.514709,418.481384 860.930420,440.169128 
	C848.184814,462.134735 835.640930,484.217285 822.917908,506.196014 
	C808.652954,530.838440 794.423706,555.503235 779.915894,580.002625 
	C770.058838,596.648315 770.186584,613.498474 778.231323,630.508911 
	C781.400757,637.210571 785.664917,643.389832 789.344055,649.856140 
	C797.663452,664.477722 805.851868,679.174194 814.238037,693.757141 
	C822.622925,708.337708 831.263184,722.771484 839.645203,737.353760 
	C847.945068,751.793213 855.988220,766.380188 864.279053,780.824951 
	C873.854614,797.507935 883.636047,814.072632 893.219482,830.751160 
	C901.596863,845.330750 909.743591,860.042969 918.136597,874.613403 
	C929.285217,893.967773 940.656006,913.194458 951.759766,932.574280 
	C955.859314,939.729248 960.437073,946.348877 967.319519,951.116821 
	C979.103760,959.280701 992.000610,961.636353 1006.044983,959.043335 
	C1027.184570,955.140442 1044.848145,935.960876 1044.909790,913.940430 
	C1045.140137,831.627441 1044.999878,749.313416 1045.005615,666.999817 
	C1045.005737,665.335938 1045.092529,663.672058 1045.863770,661.549683 
	C1045.853882,633.373962 1045.843994,605.198242 1045.994751,576.094543 
M685.049988,324.512695 
	C696.363159,305.083405 707.664978,285.647491 718.992859,266.226807 
	C729.014221,249.046051 739.018494,231.855042 749.117310,214.719803 
	C756.678772,201.889984 764.455139,189.186569 771.992310,176.342667 
	C778.023621,166.064865 782.622620,155.502151 781.125061,142.944916 
	C779.389282,128.390488 773.443115,116.582710 761.467834,107.941338 
	C746.092957,96.846794 729.542664,94.654892 712.529602,103.000931 
	C698.166809,110.046814 684.343689,118.214485 670.421875,126.132294 
	C653.700134,135.642578 637.162598,145.476166 620.479614,155.055344 
	C603.505859,164.801468 586.417236,174.347595 569.443359,184.093628 
	C552.759094,193.673416 536.191223,203.456177 519.506958,213.035965 
	C502.537598,222.779434 485.449738,232.316559 468.484070,242.066299 
	C447.173096,254.313171 425.966827,266.742218 404.652618,278.983398 
	C387.686127,288.727600 370.579529,298.227875 353.618866,307.982056 
	C334.270569,319.109375 315.047241,330.453918 295.707428,341.596100 
	C283.656586,348.538940 271.445496,355.203400 259.387878,362.134644 
	C244.950073,370.434082 230.589798,378.868683 216.213409,387.274567 
	C202.396240,395.353485 188.363815,403.096222 174.857803,411.667145 
	C158.539337,422.022827 151.328735,445.117432 156.733017,463.469666 
	C159.334229,472.303040 163.645340,479.836548 170.495544,486.075439 
	C179.369003,494.157013 189.354752,499.033295 201.607559,499.028290 
	C319.584808,498.980316 437.562103,499.008240 555.539368,498.989960 
	C572.626038,498.987335 586.054382,491.852936 595.166748,477.422546 
	C601.554199,467.307343 607.207642,456.731018 613.289551,446.419983 
	C623.154114,429.696075 633.115906,413.029541 643.008911,396.322327 
	C650.589417,383.520599 658.175415,370.721680 665.668884,357.868927 
	C672.023010,346.970337 678.247986,335.996490 685.049988,324.512695 
z"/>
<path fill="#2FC18C" opacity="1.000000" stroke="none" 
	d="	
M327.040863,709.898193 
	C359.413910,709.942993 391.786957,709.987793 425.001648,710.256470 
	C441.936737,710.610046 458.030182,710.739746 474.582489,710.886047 
	C491.041199,710.901123 507.041016,710.899597 523.040833,710.898071 
	C535.035583,710.932129 547.048157,710.564392 559.020691,711.098145 
	C575.374634,711.827209 588.298035,719.130920 596.782410,733.360718 
	C607.296387,750.994446 617.650757,768.724548 627.935120,786.493530 
	C638.384399,804.547180 648.573181,822.751770 659.042053,840.793945 
	C671.617798,862.466919 684.452942,883.989441 697.019836,905.667480 
	C708.776489,925.947998 720.240479,946.398071 731.997009,966.678589 
	C743.183411,985.975769 754.927368,1004.958557 765.735107,1024.462524 
	C770.853027,1033.698486 776.991089,1042.426270 779.325317,1053.266968 
	C782.437622,1067.721069 779.088867,1080.298584 770.704407,1091.729858 
	C760.071106,1106.227173 745.191467,1112.524780 727.452332,1111.968628 
	C716.955383,1111.639526 707.884827,1106.767700 699.044983,1101.635620 
	C687.713196,1095.056763 676.513489,1088.250000 665.169739,1081.692139 
	C651.307495,1073.678345 637.323792,1065.874756 623.450867,1057.879272 
	C611.253723,1050.849487 599.142578,1043.670654 586.983337,1036.575073 
	C568.538147,1025.811401 550.108154,1015.021423 531.626709,1004.320435 
	C516.083191,995.320557 500.447906,986.479187 484.903229,977.481262 
	C466.420441,966.782654 448.024292,955.934143 429.528412,945.258301 
	C413.272705,935.875610 396.889862,926.713074 380.639618,917.321045 
	C365.380219,908.501526 350.262634,899.436646 335.004364,890.615295 
	C322.815826,883.568665 310.456512,876.817322 298.268951,869.769043 
	C282.866455,860.861450 267.582275,851.749634 252.207443,842.793823 
	C240.315125,835.866577 228.319565,829.116089 216.446442,822.156494 
	C200.967941,813.083679 184.998077,804.689758 170.355804,794.413391 
	C162.379776,788.815613 158.017685,779.252136 155.962418,769.215332 
	C152.501724,752.315125 156.963516,737.309143 167.987976,724.688232 
	C174.998016,716.663086 184.424667,711.101318 195.379105,710.133728 
	C206.240738,709.174255 217.202316,709.346375 228.964066,709.245667 
	C245.913254,709.602600 262.018433,709.736023 278.582520,709.886047 
	C295.041229,709.901123 311.041046,709.899597 327.040863,709.898193 
z"/>
<path fill="#2FC18C" opacity="1.000000" stroke="none" 
	d="
M1045.138916,662.008179 
	C1045.092529,663.672058 1045.005737,665.335938 1045.005615,666.999817 
	C1044.999878,749.313416 1045.140137,831.627441 1044.909790,913.940430 
	C1044.848145,935.960876 1027.184570,955.140442 1006.044983,959.043335 
	C992.000610,961.636353 979.103760,959.280701 967.319519,951.116821 
	C960.437073,946.348877 955.859314,939.729248 951.759766,932.574280 
	C940.656006,913.194458 929.285217,893.967773 918.136597,874.613403 
	C909.743591,860.042969 901.596863,845.330750 893.219482,830.751160 
	C883.636047,814.072632 873.854614,797.507935 864.279053,780.824951 
	C855.988220,766.380188 847.945068,751.793213 839.645203,737.353760 
	C831.263184,722.771484 822.622925,708.337708 814.238037,693.757141 
	C805.851868,679.174194 797.663452,664.477722 789.344055,649.856140 
	C785.664917,643.389832 781.400757,637.210571 778.231323,630.508911 
	C770.186584,613.498474 770.058838,596.648315 779.915894,580.002625 
	C794.423706,555.503235 808.652954,530.838440 822.917908,506.196014 
	C835.640930,484.217285 848.184814,462.134735 860.930420,440.169128 
	C873.514709,418.481384 886.330322,396.927826 898.900635,375.232056 
	C910.664612,354.927887 922.228638,334.507935 933.902344,314.151398 
	C941.222900,301.385834 948.093750,288.326996 956.066589,275.981049 
	C963.726685,264.119537 974.438904,256.315002 989.036133,253.810043 
	C1002.783081,251.451019 1015.172241,254.164307 1026.023071,262.098663 
	C1036.246704,269.574463 1043.778442,279.603699 1044.911255,292.840546 
	C1045.742798,302.555725 1045.650391,312.349976 1045.740356,322.950470 
	C1045.343628,325.105469 1045.029785,326.419006 1045.029907,327.732513 
	C1045.032104,354.525848 1045.070190,381.319183 1045.096924,408.574097 
	C1045.042603,442.613281 1044.954224,476.190948 1044.955566,509.768585 
	C1044.956421,532.206604 1045.085083,554.644592 1045.114624,577.543823 
	C1045.094849,606.006042 1045.116821,634.007141 1045.138916,662.008179 
z"/>
<path fill="#2FC18C" opacity="1.000000" stroke="none" 
	d="
M684.790039,324.784302 
	C678.247986,335.996490 672.023010,346.970337 665.668884,357.868927 
	C658.175415,370.721680 650.589417,383.520599 643.008911,396.322327 
	C633.115906,413.029541 623.154114,429.696075 613.289551,446.419983 
	C607.207642,456.731018 601.554199,467.307343 595.166748,477.422546 
	C586.054382,491.852936 572.626038,498.987335 555.539368,498.989960 
	C437.562103,499.008240 319.584808,498.980316 201.607559,499.028290 
	C189.354752,499.033295 179.369003,494.157013 170.495544,486.075439 
	C163.645340,479.836548 159.334229,472.303040 156.733017,463.469666 
	C151.328735,445.117432 158.539337,422.022827 174.857803,411.667145 
	C188.363815,403.096222 202.396240,395.353485 216.213409,387.274567 
	C230.589798,378.868683 244.950073,370.434082 259.387878,362.134644 
	C271.445496,355.203400 283.656586,348.538940 295.707428,341.596100 
	C315.047241,330.453918 334.270569,319.109375 353.618866,307.982056 
	C370.579529,298.227875 387.686127,288.727600 404.652618,278.983398 
	C425.966827,266.742218 447.173096,254.313171 468.484070,242.066299 
	C485.449738,232.316559 502.537598,222.779434 519.506958,213.035965 
	C536.191223,203.456177 552.759094,193.673416 569.443359,184.093628 
	C586.417236,174.347595 603.505859,164.801468 620.479614,155.055344 
	C637.162598,145.476166 653.700134,135.642578 670.421875,126.132294 
	C684.343689,118.214485 698.166809,110.046814 712.529602,103.000931 
	C729.542664,94.654892 746.092957,96.846794 761.467834,107.941338 
	C773.443115,116.582710 779.389282,128.390488 781.125061,142.944916 
	C782.622620,155.502151 778.023621,166.064865 771.992310,176.342667 
	C764.455139,189.186569 756.678772,201.889984 749.117310,214.719803 
	C739.018494,231.855042 729.014221,249.046051 718.992859,266.226807 
	C707.664978,285.647491 696.363159,305.083405 684.790039,324.784302 
z"/>
<path fill="#70D5B0" opacity="1.000000" stroke="none" 
	d="
M1045.156494,577.082581 
	C1045.085083,554.644592 1044.956421,532.206604 1044.955566,509.768585 
	C1044.954224,476.190948 1045.042603,442.613281 1045.279785,408.549225 
	C1045.466797,408.062805 1045.834595,408.022675 1045.834595,408.022675 
	C1045.895996,437.113831 1045.982788,466.204987 1046.011475,495.296173 
	C1046.038086,522.228943 1046.002808,549.161743 1045.744995,576.572998 
	C1045.495239,577.051392 1045.156616,577.082581 1045.156494,577.082581 
z"/>
<path fill="#49C99A" opacity="1.000000" stroke="none" 
	d="
M1045.908325,407.557831 
	C1045.834595,408.022675 1045.466797,408.062805 1045.283936,408.087646 
	C1045.070190,381.319183 1045.032104,354.525848 1045.029907,327.732513 
	C1045.029785,326.419006 1045.343628,325.105469 1045.673340,323.417664 
	C1045.884399,351.059906 1045.933228,379.076447 1045.908325,407.557831 
z"/>
<path fill="#97E0C5" opacity="1.000000" stroke="none" 
	d="
M1045.114746,577.543823 
	C1045.156616,577.082581 1045.495239,577.051392 1045.664673,577.036987 
	C1045.843994,605.198242 1045.853882,633.373962 1045.501343,661.778931 
	C1045.116821,634.007141 1045.094849,606.006042 1045.114746,577.543823 
z"/>
<path fill="#56CDA2" opacity="1.000000" stroke="none" 
	d="
M278.123627,709.869446 
	C262.018433,709.736023 245.913254,709.602600 229.431274,709.317688 
	C245.069748,709.113525 261.085022,709.060730 277.586853,709.262756 
	C278.073395,709.517578 278.123627,709.869446 278.123627,709.869446 
z"/>
<path fill="#8ADDBE" opacity="1.000000" stroke="none" 
	d="
M278.582520,709.886047 
	C278.123627,709.869446 278.073395,709.517578 278.051575,709.341187 
	C294.218536,709.161194 310.407288,709.157532 326.818451,709.526001 
	C311.041046,709.899597 295.041229,709.901123 278.582520,709.886047 
z"/>
<path fill="#56CDA2" opacity="1.000000" stroke="none" 
	d="
M474.123596,710.869446 
	C458.030182,710.739746 441.936737,710.610046 425.471802,710.328308 
	C441.100311,710.120178 457.100311,710.064087 473.586853,710.262817 
	C474.073364,710.517578 474.123596,710.869446 474.123596,710.869446 
z"/>
<path fill="#8ADDBE" opacity="1.000000" stroke="none" 
	d="
M474.582489,710.886047 
	C474.123596,710.869446 474.073364,710.517578 474.051575,710.341248 
	C490.218536,710.161194 506.407257,710.157471 522.818420,710.525940 
	C507.041016,710.899597 491.041199,710.901123 474.582489,710.886047 
z"/>
</svg>